<svg width="106" height="103" viewBox="0 0 106 103" fill="none" xmlns="http://www.w3.org/2000/svg">
<rect x="47.3133" y="30.2462" width="41" height="47" transform="rotate(55.3353 47.3133 30.2462)" fill="#C4C4C4"/>
<rect x="47.3133" y="30.2462" width="41" height="47" transform="rotate(55.3353 47.3133 30.2462)" stroke="#C4C4C4"/>
<rect x="47.3133" y="30.2462" width="41" height="47" transform="rotate(55.3353 47.3133 30.2462)" stroke="black"/>
<rect x="44.6005" y="17.5324" width="66" height="10" rx="5" transform="rotate(55.3353 44.6005 17.5324)" fill="#C4C4C4"/>
<rect x="44.6005" y="17.5324" width="66" height="10" rx="5" transform="rotate(55.3353 44.6005 17.5324)" stroke="#C4C4C4"/>
<rect x="44.6005" y="17.5324" width="66" height="10" rx="5" transform="rotate(55.3353 44.6005 17.5324)" stroke="black"/>
<path d="M57.4327 29.9353L64.8352 24.8164C72.1032 19.7904 82.0695 21.6079 87.0955 28.876V28.876C92.1215 36.144 90.3039 46.1102 83.0359 51.1362L75.6335 56.2552" stroke="#C4C4C4" stroke-width="5"/>
<path d="M57.4327 29.9353L64.8352 24.8164C72.1032 19.7904 82.0695 21.6079 87.0955 28.876V28.876C92.1215 36.144 90.3039 46.1102 83.0359 51.1362L75.6335 56.2552" stroke="black" stroke-width="5"/>
<path d="M31.2529 90.4547L9.19548 58.0349L58.209 72.2853L31.2529 90.4547Z" fill="#629DD2"/>
<path d="M31.2529 90.4547L9.19548 58.0349L58.209 72.2853L31.2529 90.4547Z" stroke="#C4C4C4"/>
<path d="M31.2529 90.4547L9.19548 58.0349L58.209 72.2853L31.2529 90.4547Z" stroke="black"/>
</svg>
