<svg width="115" height="137" viewBox="0 0 115 137" fill="none" xmlns="http://www.w3.org/2000/svg">
<path d="M16.4413 104.246L12.716 127.766L35.9526 117.878L16.4413 104.246Z" fill="#C4C4C4" stroke="black"/>
<rect x="-0.717668" y="0.135872" width="28.5982" height="133.965" rx="9.5" transform="matrix(-0.84472 -0.535208 -0.590616 0.806953 113.756 15.4833)" fill="#C4C4C4" stroke="black"/>
<rect x="-0.713267" y="0.154941" width="28.3049" height="8.15559" transform="matrix(-0.858368 -0.513034 -0.568165 0.822915 102.654 30.3783)" fill="white" stroke="black"/>
<g style="mix-blend-mode:color-burn">
<path d="M10.8949 124.42C10.8949 126.23 12.4832 127.758 14.5197 127.758C16.5562 127.758 18.1445 126.23 18.1445 124.42C18.1445 122.61 16.5562 121.082 14.5197 121.082C12.4832 121.082 10.8949 122.61 10.8949 124.42Z" fill="black"/>
<path d="M10.8949 124.42C10.8949 126.23 12.4832 127.758 14.5197 127.758C16.5562 127.758 18.1445 126.23 18.1445 124.42C18.1445 122.61 16.5562 121.082 14.5197 121.082C12.4832 121.082 10.8949 122.61 10.8949 124.42Z" stroke="black"/>
</g>
</svg>
