<svg width="138" height="137" viewBox="0 0 138 137" fill="none" xmlns="http://www.w3.org/2000/svg">
<path d="M42.7507 70.5918L113.458 9.99282C117.329 6.67494 123.13 7.00466 126.6 10.7399L127.147 11.3285C130.613 15.0589 130.521 20.8585 126.939 24.4776L62.1444 89.9428C58.6581 93.4652 53.0497 93.7157 49.2632 90.5182L42.8035 85.0634C38.3306 81.2863 38.3055 74.4015 42.7507 70.5918Z" fill="#C4C4C4"/>
<path d="M42.7507 70.5918L113.458 9.99282C117.329 6.67494 123.13 7.00466 126.6 10.7399L127.147 11.3285C130.613 15.0589 130.521 20.8585 126.939 24.4776L62.1444 89.9428C58.6581 93.4652 53.0497 93.7157 49.2632 90.5182L42.8035 85.0634C38.3306 81.2863 38.3055 74.4015 42.7507 70.5918Z" stroke="#C4C4C4"/>
<path d="M42.7507 70.5918L113.458 9.99282C117.329 6.67494 123.13 7.00466 126.6 10.7399L127.147 11.3285C130.613 15.0589 130.521 20.8585 126.939 24.4776L62.1444 89.9428C58.6581 93.4652 53.0497 93.7157 49.2632 90.5182L42.8035 85.0634C38.3306 81.2863 38.3055 74.4015 42.7507 70.5918Z" stroke="black"/>
<path d="M49.5 103.361C49.5 115.236 39.8741 124.861 28 124.861C25.5051 124.861 22.854 125.035 20.2344 125.207C19.6432 125.246 19.0537 125.285 18.468 125.321C15.2724 125.52 12.1863 125.657 9.48738 125.42C6.78093 125.182 4.53727 124.574 2.9757 123.345C1.44321 122.138 0.5 120.278 0.5 117.362C0.5 114.419 1.4635 110.721 3.12656 106.806C4.78627 102.899 7.12753 98.8124 9.84698 95.1007C12.5675 91.3875 15.6553 88.0651 18.8015 85.6761C21.9563 83.2805 25.1189 81.8615 28 81.8615C39.8741 81.8615 49.5 91.4874 49.5 103.361Z" fill="#C4C4C4"/>
<path d="M49.5 103.361C49.5 115.236 39.8741 124.861 28 124.861C25.5051 124.861 22.854 125.035 20.2344 125.207C19.6432 125.246 19.0537 125.285 18.468 125.321C15.2724 125.52 12.1863 125.657 9.48738 125.42C6.78093 125.182 4.53727 124.574 2.9757 123.345C1.44321 122.138 0.5 120.278 0.5 117.362C0.5 114.419 1.4635 110.721 3.12656 106.806C4.78627 102.899 7.12753 98.8124 9.84698 95.1007C12.5675 91.3875 15.6553 88.0651 18.8015 85.6761C21.9563 83.2805 25.1189 81.8615 28 81.8615C39.8741 81.8615 49.5 91.4874 49.5 103.361Z" stroke="#C4C4C4"/>
<path d="M49.5 103.361C49.5 115.236 39.8741 124.861 28 124.861C25.5051 124.861 22.854 125.035 20.2344 125.207C19.6432 125.246 19.0537 125.285 18.468 125.321C15.2724 125.52 12.1863 125.657 9.48738 125.42C6.78093 125.182 4.53727 124.574 2.9757 123.345C1.44321 122.138 0.5 120.278 0.5 117.362C0.5 114.419 1.4635 110.721 3.12656 106.806C4.78627 102.899 7.12753 98.8124 9.84698 95.1007C12.5675 91.3875 15.6553 88.0651 18.8015 85.6761C21.9563 83.2805 25.1189 81.8615 28 81.8615C39.8741 81.8615 49.5 91.4874 49.5 103.361Z" stroke="black"/>
<path d="M115.559 104.246L119.284 127.766L96.0474 117.878L115.559 104.246Z" fill="#C4C4C4" stroke="black"/>
<rect x="0.717668" y="0.135872" width="28.5982" height="133.965" rx="9.5" transform="matrix(0.84472 -0.535208 0.590616 0.806953 17.0312 16.2515)" fill="#C4C4C4" stroke="black"/>
<rect x="0.713267" y="0.154941" width="28.3049" height="8.15559" transform="matrix(0.858368 -0.513034 0.568165 0.822915 28.1218 31.1101)" fill="white" stroke="black"/>
<g style="mix-blend-mode:color-burn">
<path d="M121.105 124.42C121.105 126.23 119.517 127.758 117.48 127.758C115.444 127.758 113.855 126.23 113.855 124.42C113.855 122.61 115.444 121.082 117.48 121.082C119.517 121.082 121.105 122.61 121.105 124.42Z" fill="black"/>
<path d="M121.105 124.42C121.105 126.23 119.517 127.758 117.48 127.758C115.444 127.758 113.855 126.23 113.855 124.42C113.855 122.61 115.444 121.082 117.48 121.082C119.517 121.082 121.105 122.61 121.105 124.42Z" stroke="black"/>
</g>
</svg>
