<svg width="857" height="292" viewBox="0 0 857 292" fill="none" xmlns="http://www.w3.org/2000/svg">
<ellipse cx="428.497" cy="146.357" rx="427.773" ry="145.643" fill="#3C84C6"/>
<g clip-path="url(#clip0_6_17)">
<path d="M221.982 135.592L281.495 74.9928C284.753 71.6749 289.635 72.0047 292.556 75.7399L293.016 76.3285C295.934 80.0589 295.856 85.8585 292.841 89.4776L238.305 154.943C235.371 158.465 230.651 158.716 227.464 155.518L222.027 150.063C218.262 146.286 218.241 139.401 221.982 135.592Z" fill="#C4C4C4"/>
<path d="M221.982 135.592L281.495 74.9928C284.753 71.6749 289.635 72.0047 292.556 75.7399L293.016 76.3285C295.934 80.0589 295.856 85.8585 292.841 89.4776L238.305 154.943C235.371 158.465 230.651 158.716 227.464 155.518L222.027 150.063C218.262 146.286 218.241 139.401 221.982 135.592Z" stroke="#C4C4C4"/>
<path d="M221.982 135.592L281.495 74.9928C284.753 71.6749 289.635 72.0047 292.556 75.7399L293.016 76.3285C295.934 80.0589 295.856 85.8585 292.841 89.4776L238.305 154.943C235.371 158.465 230.651 158.716 227.464 155.518L222.027 150.063C218.262 146.286 218.241 139.401 221.982 135.592Z" stroke="black"/>
<path d="M227.663 168.361C227.663 180.236 219.561 189.861 209.567 189.861C207.467 189.861 205.236 190.035 203.031 190.207C202.533 190.246 202.037 190.285 201.544 190.321C198.854 190.52 196.257 190.657 193.985 190.42C191.707 190.182 189.819 189.574 188.505 188.345C187.215 187.138 186.421 185.278 186.421 182.362C186.421 179.419 187.232 175.721 188.631 171.806C190.028 167.899 191.999 163.812 194.288 160.101C196.578 156.387 199.177 153.065 201.825 150.676C204.48 148.28 207.142 146.861 209.567 146.861C219.561 146.861 227.663 156.487 227.663 168.361Z" fill="#C4C4C4"/>
<path d="M227.663 168.361C227.663 180.236 219.561 189.861 209.567 189.861C207.467 189.861 205.236 190.035 203.031 190.207C202.533 190.246 202.037 190.285 201.544 190.321C198.854 190.52 196.257 190.657 193.985 190.42C191.707 190.182 189.819 189.574 188.505 188.345C187.215 187.138 186.421 185.278 186.421 182.362C186.421 179.419 187.232 175.721 188.631 171.806C190.028 167.899 191.999 163.812 194.288 160.101C196.578 156.387 199.177 153.065 201.825 150.676C204.48 148.28 207.142 146.861 209.567 146.861C219.561 146.861 227.663 156.487 227.663 168.361Z" stroke="#C4C4C4"/>
<path d="M227.663 168.361C227.663 180.236 219.561 189.861 209.567 189.861C207.467 189.861 205.236 190.035 203.031 190.207C202.533 190.246 202.037 190.285 201.544 190.321C198.854 190.52 196.257 190.657 193.985 190.42C191.707 190.182 189.819 189.574 188.505 188.345C187.215 187.138 186.421 185.278 186.421 182.362C186.421 179.419 187.232 175.721 188.631 171.806C190.028 167.899 191.999 163.812 194.288 160.101C196.578 156.387 199.177 153.065 201.825 150.676C204.48 148.28 207.142 146.861 209.567 146.861C219.561 146.861 227.663 156.487 227.663 168.361Z" stroke="black"/>
<path d="M283.263 169.246L286.398 192.766L266.841 182.878L283.263 169.246Z" fill="#C4C4C4" stroke="black"/>
<path d="M214.491 70.7555L207.667 75.8926C203.936 78.7006 203.027 84.4092 205.635 88.6431L262.785 181.414C265.393 185.648 270.531 186.804 274.262 183.996L281.086 178.859C284.816 176.051 285.726 170.342 283.118 166.108L225.968 73.3371C223.36 69.1033 218.221 67.9474 214.491 70.7555Z" fill="#C4C4C4" stroke="black"/>
<path d="M230.708 81.3503L210.259 95.8717L214.159 102.583L234.608 88.0616L230.708 81.3503Z" fill="white" stroke="black"/>
<g style="mix-blend-mode:color-burn">
<g style="mix-blend-mode:color-burn">
<path d="M287.931 189.42C287.931 191.23 286.594 192.758 284.88 192.758C283.166 192.758 281.829 191.23 281.829 189.42C281.829 187.61 283.166 186.082 284.88 186.082C286.594 186.082 287.931 187.61 287.931 189.42Z" fill="black"/>
</g>
<g style="mix-blend-mode:color-burn">
<path d="M287.931 189.42C287.931 191.23 286.594 192.758 284.88 192.758C283.166 192.758 281.829 191.23 281.829 189.42C281.829 187.61 283.166 186.082 284.88 186.082C286.594 186.082 287.931 187.61 287.931 189.42Z" stroke="black"/>
</g>
</g>
</g>
<g clip-path="url(#clip1_6_17)">
<path d="M600.982 135.592L660.495 74.9928C663.753 71.6749 668.635 72.0047 671.556 75.7399L672.016 76.3285C674.934 80.0589 674.856 85.8585 671.841 89.4776L617.305 154.943C614.371 158.465 609.651 158.716 606.464 155.518L601.027 150.063C597.262 146.286 597.241 139.401 600.982 135.592Z" fill="#C4C4C4"/>
<path d="M600.982 135.592L660.495 74.9928C663.753 71.6749 668.635 72.0047 671.556 75.7399L672.016 76.3285C674.934 80.0589 674.856 85.8585 671.841 89.4776L617.305 154.943C614.371 158.465 609.651 158.716 606.464 155.518L601.027 150.063C597.262 146.286 597.241 139.401 600.982 135.592Z" stroke="#C4C4C4"/>
<path d="M600.982 135.592L660.495 74.9928C663.753 71.6749 668.635 72.0047 671.556 75.7399L672.016 76.3285C674.934 80.0589 674.856 85.8585 671.841 89.4776L617.305 154.943C614.371 158.465 609.651 158.716 606.464 155.518L601.027 150.063C597.262 146.286 597.241 139.401 600.982 135.592Z" stroke="black"/>
<path d="M606.663 168.361C606.663 180.236 598.561 189.861 588.567 189.861C586.467 189.861 584.236 190.035 582.031 190.207C581.533 190.246 581.037 190.285 580.544 190.321C577.854 190.52 575.257 190.657 572.985 190.42C570.707 190.182 568.819 189.574 567.505 188.345C566.215 187.138 565.421 185.278 565.421 182.362C565.421 179.419 566.232 175.721 567.631 171.806C569.028 167.899 570.999 163.812 573.288 160.101C575.578 156.387 578.177 153.065 580.825 150.676C583.48 148.28 586.142 146.861 588.567 146.861C598.561 146.861 606.663 156.487 606.663 168.361Z" fill="#C4C4C4"/>
<path d="M606.663 168.361C606.663 180.236 598.561 189.861 588.567 189.861C586.467 189.861 584.236 190.035 582.031 190.207C581.533 190.246 581.037 190.285 580.544 190.321C577.854 190.52 575.257 190.657 572.985 190.42C570.707 190.182 568.819 189.574 567.505 188.345C566.215 187.138 565.421 185.278 565.421 182.362C565.421 179.419 566.232 175.721 567.631 171.806C569.028 167.899 570.999 163.812 573.288 160.101C575.578 156.387 578.177 153.065 580.825 150.676C583.48 148.28 586.142 146.861 588.567 146.861C598.561 146.861 606.663 156.487 606.663 168.361Z" stroke="#C4C4C4"/>
<path d="M606.663 168.361C606.663 180.236 598.561 189.861 588.567 189.861C586.467 189.861 584.236 190.035 582.031 190.207C581.533 190.246 581.037 190.285 580.544 190.321C577.854 190.52 575.257 190.657 572.985 190.42C570.707 190.182 568.819 189.574 567.505 188.345C566.215 187.138 565.421 185.278 565.421 182.362C565.421 179.419 566.232 175.721 567.631 171.806C569.028 167.899 570.999 163.812 573.288 160.101C575.578 156.387 578.177 153.065 580.825 150.676C583.48 148.28 586.142 146.861 588.567 146.861C598.561 146.861 606.663 156.487 606.663 168.361Z" stroke="black"/>
<path d="M662.263 169.246L665.398 192.766L645.841 182.878L662.263 169.246Z" fill="#C4C4C4" stroke="black"/>
<path d="M593.491 70.7555L586.667 75.8926C582.936 78.7006 582.027 84.4092 584.635 88.6431L641.785 181.414C644.393 185.648 649.531 186.804 653.262 183.996L660.086 178.859C663.816 176.051 664.726 170.342 662.118 166.108L604.968 73.3371C602.36 69.1033 597.221 67.9474 593.491 70.7555Z" fill="#C4C4C4" stroke="black"/>
<path d="M609.708 81.3503L589.259 95.8717L593.159 102.583L613.608 88.0616L609.708 81.3503Z" fill="white" stroke="black"/>
<g style="mix-blend-mode:color-burn">
<g style="mix-blend-mode:color-burn">
<path d="M666.931 189.42C666.931 191.23 665.594 192.758 663.88 192.758C662.166 192.758 660.829 191.23 660.829 189.42C660.829 187.61 662.166 186.082 663.88 186.082C665.594 186.082 666.931 187.61 666.931 189.42Z" fill="black"/>
</g>
<g style="mix-blend-mode:color-burn">
<path d="M666.931 189.42C666.931 191.23 665.594 192.758 663.88 192.758C662.166 192.758 660.829 191.23 660.829 189.42C660.829 187.61 662.166 186.082 663.88 186.082C665.594 186.082 666.931 187.61 666.931 189.42Z" stroke="black"/>
</g>
</g>
</g>
<path d="M328.943 132.339C328.943 135.562 328.173 138.346 326.633 140.691C325.326 142.66 323.697 144.057 321.746 144.88C322.999 145.417 324.019 146.304 324.807 147.539C325.595 148.774 325.989 150.09 325.989 151.487C325.989 154.96 324.136 157.502 320.43 159.114C317.565 160.367 313.805 160.994 309.15 160.994C305.14 160.994 300.834 160.662 296.233 160C296.108 155.828 295.848 149.025 295.454 139.59C295.186 134.523 294.783 127.576 294.246 118.75C297.647 118.088 301.953 117.756 307.163 117.756C321.683 117.756 328.943 122.617 328.943 132.339ZM318.013 137.388C318.013 136.009 317.458 134.953 316.348 134.219C315.345 133.556 314.029 133.243 312.4 133.279L311.997 141.362C316.007 141.506 318.013 140.181 318.013 137.388ZM317.126 150.144C317.126 148.067 315.64 147.029 312.668 147.029C312.364 147.029 312.051 147.047 311.729 147.083L311.567 153.662C315.273 153.823 317.126 152.651 317.126 150.144ZM366.782 134.192C366.782 137.486 365.86 140.404 364.016 142.947C362.387 145.167 360.346 146.76 357.893 147.727C358.412 148.533 359.692 150.225 361.733 152.803C362.754 153.984 364.312 155.542 366.406 157.476C365.565 157.78 363.712 158.55 360.847 159.785C358.842 160.698 356.953 161.593 355.181 162.471C354.661 161.826 353.507 160.161 351.716 157.476C350.893 156.115 349.684 153.823 348.091 150.601H348.037L347.769 160H332.649C332.452 156.097 332.174 149.661 331.816 140.691C331.655 135.409 331.288 128.096 330.715 118.75C335.639 118.231 340.133 117.971 344.197 117.971C359.254 117.971 366.782 123.378 366.782 134.192ZM354.59 139.993C354.59 138.292 353.874 137.074 352.441 136.34C351.385 135.803 350.06 135.57 348.467 135.642L348.306 144.827C349.792 144.827 351.117 144.495 352.28 143.833C353.82 142.974 354.59 141.694 354.59 139.993ZM404.729 118.75L404.111 136.125C403.932 141.085 403.843 148.586 403.843 158.63C399.259 160.277 394.587 161.101 389.824 161.101C383.952 161.101 379.485 159.928 376.423 157.583C373.827 155.596 371.992 152.498 370.918 148.291C370.291 145.874 369.701 141.452 369.146 135.024C368.608 129.08 368.277 123.656 368.152 118.75H385.474C385.384 121.113 385.277 124.963 385.151 130.298C385.098 133.27 385.116 137.486 385.205 142.947C385.223 147.1 385.581 149.902 386.279 151.353C387.013 152.892 388.481 153.662 390.684 153.662C391.31 153.662 392.008 153.483 392.778 153.125C392.778 149.437 392.671 143.573 392.456 135.535C392.277 131.506 391.946 125.911 391.462 118.75H404.729ZM441.628 132.339C441.628 135.562 440.859 138.346 439.319 140.691C438.012 142.66 436.383 144.057 434.431 144.88C435.684 145.417 436.705 146.304 437.493 147.539C438.28 148.774 438.674 150.09 438.674 151.487C438.674 154.96 436.821 157.502 433.115 159.114C430.251 160.367 426.491 160.994 421.836 160.994C417.826 160.994 413.52 160.662 408.918 160C408.793 155.828 408.534 149.025 408.14 139.59C407.871 134.523 407.468 127.576 406.931 118.75C410.333 118.088 414.639 117.756 419.849 117.756C434.368 117.756 441.628 122.617 441.628 132.339ZM430.698 137.388C430.698 136.009 430.143 134.953 429.033 134.219C428.031 133.556 426.715 133.243 425.085 133.279L424.683 141.362C428.693 141.506 430.698 140.181 430.698 137.388ZM429.812 150.144C429.812 148.067 428.326 147.029 425.354 147.029C425.05 147.029 424.736 147.047 424.414 147.083L424.253 153.662C427.959 153.823 429.812 152.651 429.812 150.144ZM478.098 132.339C478.098 135.562 477.328 138.346 475.789 140.691C474.482 142.66 472.852 144.057 470.901 144.88C472.154 145.417 473.175 146.304 473.962 147.539C474.75 148.774 475.144 150.09 475.144 151.487C475.144 154.96 473.291 157.502 469.585 159.114C466.72 160.367 462.961 160.994 458.306 160.994C454.295 160.994 449.989 160.662 445.388 160C445.263 155.828 445.003 149.025 444.609 139.59C444.341 134.523 443.938 127.576 443.401 118.75C446.803 118.088 451.108 117.756 456.318 117.756C470.838 117.756 478.098 122.617 478.098 132.339ZM467.168 137.388C467.168 136.009 466.613 134.953 465.503 134.219C464.5 133.556 463.184 133.243 461.555 133.279L461.152 141.362C465.163 141.506 467.168 140.181 467.168 137.388ZM466.282 150.144C466.282 148.067 464.796 147.029 461.824 147.029C461.519 147.029 461.206 147.047 460.884 147.083L460.723 153.662C464.429 153.823 466.282 152.651 466.282 150.144ZM507.747 151.863C507.568 152.579 507.236 153.931 506.753 155.918C506.502 157.082 506.287 158.442 506.108 160H481.804C481.715 155.793 481.491 148.864 481.133 139.214C480.9 134.272 480.479 127.451 479.871 118.75H498.508L496.978 152.964C498.714 152.964 501.319 152.776 504.792 152.4C505.509 152.328 506.493 152.149 507.747 151.863ZM527.673 118.75L526.626 140.691C526.429 145.417 526.196 151.854 525.928 160H510.862L509.036 118.75H527.673ZM565.889 138.489C565.889 144.809 564.259 150.153 561.001 154.521C557.581 159.087 553.204 161.37 547.869 161.37C542.372 161.37 537.923 159.069 534.521 154.468C531.317 150.135 529.714 144.809 529.714 138.489C529.714 131.739 531.46 126.44 534.951 122.59C538.245 118.974 542.551 117.166 547.869 117.166C553.097 117.166 557.358 118.983 560.652 122.617C564.143 126.484 565.889 131.775 565.889 138.489ZM552.971 143.215C552.971 138.238 551.288 135.75 547.922 135.75C544.646 135.75 543.008 138.256 543.008 143.269C543.008 145.274 543.438 147.145 544.297 148.882C545.264 150.833 546.454 151.809 547.869 151.809C549.247 151.809 550.465 150.815 551.521 148.828C552.488 147.02 552.971 145.149 552.971 143.215Z" fill="white"/>
<path d="M57.7637 77H104.5L127.846 79.9183C128.275 79.9719 128.688 80.1344 129.04 80.3857C130.48 81.4144 130.502 83.5702 129.062 84.5989C128.694 84.8617 128.263 85.0231 127.813 85.0671L62.1994 91.4805C62.0676 91.4934 61.9393 91.5304 61.8208 91.5896C60.8993 92.0504 61.0822 93.4164 62.0925 93.6185L66.5 94.5L145.993 100.425C146.561 100.467 147 100.94 147 101.51C147 102.071 146.573 102.54 146.014 102.593L72.7746 109.474C72.5938 109.491 72.4192 109.548 72.2635 109.642C71.3741 110.176 71.5202 111.507 72.5042 111.835L74.2753 112.425C74.4246 112.475 74.5791 112.507 74.7358 112.522L200.541 124.409C201.177 124.469 201.799 124.626 202.388 124.874L209.44 127.843C210.185 128.157 210.375 129.125 209.803 129.697C209.608 129.892 209.348 130.01 209.072 130.028L0.5 143.5C1.4169 145.945 3.65405 147.648 6.25496 147.881L140.851 159.942C141.264 159.979 141.642 160.19 141.891 160.521C142.457 161.277 142.172 162.362 141.307 162.741L135.807 165.147C135.272 165.381 134.706 165.539 134.127 165.615L25.5011 179.92C18.1234 180.891 10.8163 177.686 6.5338 171.601L4 168L3.22442 166.67C1.44017 163.612 0.5 160.134 0.5 156.593V147.5V143.5L1.56402 135.343C1.85264 133.13 2.50953 130.981 3.50748 128.985L10.5 115L17.7491 104.34C18.5805 103.117 19.5448 101.99 20.6245 100.98L33.1016 89.3082C34.0317 88.4381 35.0429 87.6588 36.1213 86.9809L47.1203 80.0673C50.3085 78.0632 53.9979 77 57.7637 77Z" fill="white"/>
<path d="M799.236 77H752.5L729.154 79.9183C728.725 79.9719 728.312 80.1344 727.96 80.3857C726.52 81.4144 726.498 83.5702 727.938 84.5989C728.306 84.8617 728.737 85.0231 729.187 85.0671L794.801 91.4805C794.932 91.4934 795.061 91.5304 795.179 91.5896C796.101 92.0504 795.918 93.4164 794.908 93.6185L790.5 94.5L711.007 100.425C710.439 100.467 710 100.94 710 101.51C710 102.071 710.427 102.54 710.986 102.593L784.225 109.474C784.406 109.491 784.581 109.548 784.736 109.642C785.626 110.176 785.48 111.507 784.496 111.835L782.725 112.425C782.575 112.475 782.421 112.507 782.264 112.522L656.459 124.409C655.823 124.469 655.201 124.626 654.612 124.874L647.56 127.843C646.815 128.157 646.625 129.125 647.197 129.697C647.392 129.892 647.652 130.01 647.928 130.028L856.5 143.5C855.583 145.945 853.346 147.648 850.745 147.881L716.149 159.942C715.736 159.979 715.358 160.19 715.109 160.521C714.543 161.277 714.828 162.362 715.693 162.741L721.193 165.147C721.728 165.381 722.294 165.539 722.873 165.615L831.499 179.92C838.877 180.891 846.184 177.686 850.466 171.601L853 168L853.776 166.67C855.56 163.612 856.5 160.134 856.5 156.593V147.5V143.5L855.436 135.343C855.147 133.13 854.49 130.981 853.493 128.985L846.5 115L839.251 104.34C838.42 103.117 837.455 101.99 836.375 100.98L823.898 89.3082C822.968 88.4381 821.957 87.6588 820.879 86.9809L809.88 80.0673C806.691 78.0632 803.002 77 799.236 77Z" fill="white"/>
<defs>
<clipPath id="clip0_6_17">
<rect width="116.151" height="137" fill="white" transform="translate(186 65)"/>
</clipPath>
<clipPath id="clip1_6_17">
<rect width="116.151" height="137" fill="white" transform="translate(565 65)"/>
</clipPath>
</defs>
</svg>
