<svg width="240" height="231" viewBox="0 0 240 231" fill="none" xmlns="http://www.w3.org/2000/svg">
<path d="M240 231C240 231 186.274 231 120 231C53.7258 231 0 231 0 231C0 168.592 53.7258 118 120 118C186.274 118 240 168.592 240 231Z" fill="#FF8B03"/>
<ellipse cx="119.818" cy="58.8471" rx="61" ry="58.8471" fill="#FF8B03"/>
<ellipse cx="94.5" cy="41" rx="10.5" ry="10" fill="black"/>
<ellipse cx="143.5" cy="41" rx="10.5" ry="10" fill="black"/>
<path d="M79.6805 59.0793V55.2012H81.8831V59.0793L83.8104 66.5122L93.4468 72.9756L106.938 75.561L124.283 72.9756L136.948 69.0976L147.41 64.5732L161.177 59.0793L169.712 53.5854V51H171.639L173.291 56.8171L181 62.6341H173.291V66.5122V69.0976L168.335 75.561L157.597 91.0732L141.904 102.707L124.283 106.909L106.938 108.524L95.9247 106.909L81.8831 102.707L79.6805 101.091L76.3766 91.0732L75 72.9756L76.3766 66.5122L79.6805 59.0793Z" fill="black" stroke="black" stroke-width="0.646341"/>
<path d="M78.5792 77.5V69.7439L80.5065 68.128L93.4468 75.561L109.691 79.1158L136.673 72.9756L166.408 59.7256H171.088L169.436 65.5427L160.351 71.3597L144.657 79.1158L121.255 86.2256L101.706 88.4878L88.7662 86.2256L82.4338 82.0244L78.5792 77.5Z" fill="white" stroke="black" stroke-width="0.646341"/>
<path d="M81.3324 98.1829L79.4052 90.4268L98.6779 94.3049L122.356 90.4268L167.784 72.0061L165.306 75.8842L156.496 86.872L139.977 99.7988L113.821 103.03H94.548L81.3324 98.1829Z" fill="white" stroke="black" stroke-width="0.646341"/>
</svg>
