<svg width="240" height="231" viewBox="0 0 240 231" fill="none" xmlns="http://www.w3.org/2000/svg">
<path d="M240 231C240 231 186.274 231 120 231C53.7258 231 0 231 0 231C0 168.592 53.7258 118 120 118C186.274 118 240 168.592 240 231Z" fill="#FAFF00"/>
<ellipse cx="120.818" cy="58.8471" rx="61" ry="58.8471" fill="#FAFF00"/>
<ellipse cx="95.5" cy="41" rx="10.5" ry="10" fill="black"/>
<ellipse cx="144.5" cy="41" rx="10.5" ry="10" fill="black"/>
<path d="M80.6805 59.0793V55.2012H82.8831V59.0793L84.8104 66.5122L94.4468 72.9756L107.938 75.561L125.283 72.9756L137.948 69.0976L148.41 64.5732L162.177 59.0793L170.712 53.5854V51H172.639L174.291 56.8171L182 62.6341H174.291V66.5122V69.0976L169.335 75.561L158.597 91.0732L142.904 102.707L125.283 106.909L107.938 108.524L96.9247 106.909L82.8831 102.707L80.6805 101.091L77.3766 91.0732L76 72.9756L77.3766 66.5122L80.6805 59.0793Z" fill="black" stroke="black" stroke-width="0.646341"/>
<path d="M79.5792 77.5V69.7439L81.5065 68.128L94.4468 75.561L110.691 79.1158L137.673 72.9756L167.408 59.7256H172.088L170.436 65.5427L161.351 71.3597L145.657 79.1158L122.255 86.2256L102.706 88.4878L89.7662 86.2256L83.4338 82.0244L79.5792 77.5Z" fill="white" stroke="black" stroke-width="0.646341"/>
<path d="M82.3324 98.1829L80.4052 90.4268L99.6779 94.3049L123.356 90.4268L168.784 72.0061L166.306 75.8842L157.496 86.872L140.977 99.7988L114.821 103.03H95.548L82.3324 98.1829Z" fill="white" stroke="black" stroke-width="0.646341"/>
</svg>
