<svg width="240" height="231" viewBox="0 0 240 231" fill="none" xmlns="http://www.w3.org/2000/svg">
<path d="M240 231C240 231 186.274 231 120 231C53.7258 231 0 231 0 231C0 168.592 53.7258 118 120 118C186.274 118 240 168.592 240 231Z" fill="#FF00D6"/>
<ellipse cx="120.819" cy="58.8471" rx="61" ry="58.8471" fill="#FF00D6"/>
<ellipse cx="95.5001" cy="41" rx="10.5" ry="10" fill="black"/>
<ellipse cx="144.5" cy="41" rx="10.5" ry="10" fill="black"/>
<path d="M80.6806 59.0793V55.2012H82.8832V59.0793L84.8105 66.5122L94.4469 72.9756L107.938 75.561L125.283 72.9756L137.948 69.0976L148.411 64.5732L162.177 59.0793L170.712 53.5854V51H172.639L174.291 56.8171L182 62.6341H174.291V66.5122V69.0976L169.335 75.561L158.598 91.0732L142.904 102.707L125.283 106.909L107.938 108.524L96.9248 106.909L82.8832 102.707L80.6806 101.091L77.3767 91.0732L76.0001 72.9756L77.3767 66.5122L80.6806 59.0793Z" fill="black" stroke="black" stroke-width="0.646341"/>
<path d="M79.5793 77.5V69.7439L81.5066 68.128L94.4469 75.561L110.691 79.1158L137.673 72.9756L167.408 59.7256H172.088L170.436 65.5427L161.351 71.3597L145.657 79.1158L122.255 86.2256L102.707 88.4878L89.7664 86.2256L83.4339 82.0244L79.5793 77.5Z" fill="white" stroke="black" stroke-width="0.646341"/>
<path d="M82.3325 98.1829L80.4053 90.4268L99.678 94.3049L123.356 90.4268L168.784 72.0061L166.307 75.8842L157.496 86.872L140.977 99.7988L114.821 103.03H95.5481L82.3325 98.1829Z" fill="white" stroke="black" stroke-width="0.646341"/>
</svg>
